<svg width="900" height="243" viewBox="0 0 900 243" fill="none" xmlns="http://www.w3.org/2000/svg">
<path d="M0 90L21.5 74C43 58 86 26 128.8 25.5C171.7 25 214.3 56 257.2 69C300 82 343 77 385.8 65.3C428.7 53.7 471.3 35.3 514.2 25.7C557 16 600 15 642.8 25.7C685.7 36.3 728.3 58.7 771.2 56.3C814 54 857 27 878.5 13.5L900 0V244H878.5C857 244 814 244 771.2 244C728.3 244 685.7 244 642.8 244C600 244 557 244 514.2 244C471.3 244 428.7 244 385.8 244C343 244 300 244 257.2 244C214.3 244 171.7 244 128.8 244C86 244 43 244 21.5 244H0V90Z" fill="#00FFC8"/>
<path d="M0 106L21.5 106.3C43 106.7 86 107.3 128.8 108.2C171.7 109 214.3 110 257.2 101.8C300 93.7 343 76.3 385.8 77.7C428.7 79 471.3 99 514.2 98.8C557 98.7 600 78.3 642.8 75.8C685.7 73.3 728.3 88.7 771.2 89.5C814 90.3 857 76.7 878.5 69.8L900 63V244H878.5C857 244 814 244 771.2 244C728.3 244 685.7 244 642.8 244C600 244 557 244 514.2 244C471.3 244 428.7 244 385.8 244C343 244 300 244 257.2 244C214.3 244 171.7 244 128.8 244C86 244 43 244 21.5 244H0V106Z" fill="#00E3B2"/>
<path d="M0 121L21.5 116.2C43 111.3 86 101.7 128.8 105.8C171.7 110 214.3 128 257.2 127.2C300 126.3 343 106.7 385.8 104.3C428.7 102 471.3 117 514.2 123.3C557 129.7 600 127.3 642.8 126.5C685.7 125.7 728.3 126.3 771.2 126.2C814 126 857 125 878.5 124.5L900 124V244H878.5C857 244 814 244 771.2 244C728.3 244 685.7 244 642.8 244C600 244 557 244 514.2 244C471.3 244 428.7 244 385.8 244C343 244 300 244 257.2 244C214.3 244 171.7 244 128.8 244C86 244 43 244 21.5 244H0V121Z" fill="#00C89C"/>
<path d="M0 183L21.5 180.8C43 178.7 86 174.3 128.8 165.3C171.7 156.3 214.3 142.7 257.2 140.2C300 137.7 343 146.3 385.8 152.5C428.7 158.7 471.3 162.3 514.2 161.3C557 160.3 600 154.7 642.8 148.3C685.7 142 728.3 135 771.2 138.8C814 142.7 857 157.3 878.5 164.7L900 172V244H878.5C857 244 814 244 771.2 244C728.3 244 685.7 244 642.8 244C600 244 557 244 514.2 244C471.3 244 428.7 244 385.8 244C343 244 300 244 257.2 244C214.3 244 171.7 244 128.8 244C86 244 43 244 21.5 244H0V183Z" fill="#00AE87"/>
<path d="M0 200L21.5 195C43 190 86 180 128.8 177.8C171.7 175.7 214.3 181.3 257.2 189.2C300 197 343 207 385.8 204.5C428.7 202 471.3 187 514.2 180.2C557 173.3 600 174.7 642.8 182C685.7 189.3 728.3 202.7 771.2 203C814 203.3 857 190.7 878.5 184.3L900 178V244H878.5C857 244 814 244 771.2 244C728.3 244 685.7 244 642.8 244C600 244 557 244 514.2 244C471.3 244 428.7 244 385.8 244C343 244 300 244 257.2 244C214.3 244 171.7 244 128.8 244C86 244 43 244 21.5 244H0V200Z" fill="#009473"/>
</svg>
