<svg width="591" height="478" viewBox="0 0 591 478" fill="none" xmlns="http://www.w3.org/2000/svg">
<g clip-path="url(#clip0_2_32)">
<path d="M393.549 478L393.423 477.988L197.452 459.762L19.2487 476.336C14.5959 476.768 9.962 475.333 6.36635 472.345C2.7707 469.357 0.507874 465.061 0.0756683 460.403C0.0253633 459.86 0.000190712 459.317 0.000147001 458.771V34.4417C-0.0178399 30.0406 1.6154 25.7932 4.57652 22.5404C7.53764 19.2876 11.6107 17.2666 15.9894 16.8775L197.452 0L197.577 0.0119196L393.549 18.2384L571.751 1.66435C576.404 1.2316 581.038 2.66712 584.634 5.65511C588.229 8.64309 590.492 12.9388 590.924 17.5972C590.975 18.1395 591 18.6833 591 19.2286V443.558C591.018 447.959 589.385 452.207 586.424 455.459C583.463 458.712 579.389 460.733 575.011 461.123L393.549 478Z" fill="#00624C"/>
<path d="M273.178 156.981C235.244 129.32 195.33 103.09 154.556 79.0253L152.509 77.8176V159.437H276.547L273.178 156.981ZM155.22 156.723V82.5737C194.009 105.547 231.991 130.473 268.212 156.723L155.22 156.723ZM465.164 324.718C448.758 307.641 431.927 290.953 414.672 274.654C409.915 270.156 405.129 265.694 400.313 261.268C370.923 234.238 340.566 208.531 309.243 184.147L308.877 183.862H152.509V327.018H467.373L465.164 324.718ZM155.22 324.304V186.576H307.949C338.152 210.098 367.537 234.937 396.105 261.091C401.065 265.63 405.991 270.205 410.884 274.817C427.988 290.91 444.692 307.406 460.996 324.304H155.22ZM465.164 324.718C448.758 307.641 431.927 290.953 414.672 274.654C409.915 270.156 405.129 265.694 400.313 261.268C370.923 234.238 340.566 208.531 309.243 184.147L308.877 183.862H152.509V327.018H467.373L465.164 324.718ZM155.22 324.304V186.576H307.949C338.152 210.098 367.537 234.937 396.105 261.091C401.065 265.63 405.991 270.205 410.884 274.817C427.988 290.91 444.692 307.406 460.996 324.304H155.22ZM273.178 156.981C235.244 129.32 195.33 103.09 154.556 79.0253L152.509 77.8176V159.437H276.547L273.178 156.981ZM155.22 156.723V82.5737C194.009 105.547 231.991 130.473 268.212 156.723L155.22 156.723ZM273.178 156.981C235.244 129.32 195.33 103.09 154.556 79.0253L152.509 77.8176V159.437H276.547L273.178 156.981ZM155.22 156.723V82.5737C194.009 105.547 231.991 130.473 268.212 156.723L155.22 156.723ZM465.164 324.718C448.758 307.641 431.927 290.953 414.672 274.654C409.915 270.156 405.129 265.694 400.313 261.268C370.923 234.238 340.566 208.531 309.243 184.147L308.877 183.862H152.509V327.018H467.373L465.164 324.718ZM155.22 324.304V186.576H307.949C338.152 210.098 367.537 234.937 396.105 261.091C401.065 265.63 405.991 270.205 410.884 274.817C427.988 290.91 444.692 307.406 460.996 324.304H155.22ZM18.3479 351.443V354.157H125.403V393.508H18.3479V396.221H128.114V351.443H18.3479ZM152.509 420.646V448.144L155.22 447.893V423.36H572.653V420.646L152.509 420.646ZM572.653 354.157V351.443H152.509V396.221H572.653V393.508H155.22V354.156L572.653 354.157ZM319.516 156.723C267.515 116.561 212.597 80.3324 155.22 48.3383V20.8605L152.509 21.1115V48.8021L154.596 51.0997C211.74 83.0068 266.435 119.124 318.229 159.152L318.595 159.437H572.653V156.723L319.516 156.723ZM125.403 156.723H18.3479V159.437H128.114V23.3776L125.403 23.6286L125.403 156.723ZM572.653 183.862H349.306L352.227 186.264C379.726 208.917 406.725 232.944 433.226 258.344C436.994 261.953 440.748 265.592 444.489 269.26C463.111 287.477 481.369 306.289 499.263 325.695L501.498 327.018H572.653V324.304H501.669C483.969 305.09 465.884 286.432 447.416 268.331C443.723 264.708 440.016 261.11 436.296 257.536C410.369 232.63 383.888 208.976 356.855 186.576H572.653V183.862ZM18.3479 420.646V423.36H125.403V450.661L128.114 450.41V420.646H18.3479ZM18.3479 183.862V186.576H125.403V324.304H18.3479V327.018H128.114V183.862H18.3479ZM273.178 156.981C235.244 129.32 195.33 103.09 154.556 79.0253L152.509 77.8176V159.437H276.547L273.178 156.981ZM155.22 156.723V82.5737C194.009 105.547 231.991 130.473 268.212 156.723L155.22 156.723ZM465.164 324.718C448.758 307.641 431.927 290.953 414.672 274.654C409.915 270.156 405.129 265.694 400.313 261.268C370.923 234.238 340.566 208.531 309.243 184.147L308.877 183.862H152.509V327.018H467.373L465.164 324.718ZM155.22 324.304V186.576H307.949C338.152 210.098 367.537 234.937 396.105 261.091C401.065 265.63 405.991 270.205 410.884 274.817C427.988 290.91 444.692 307.406 460.996 324.304H155.22ZM273.178 156.981C235.244 129.32 195.33 103.09 154.556 79.0253L152.509 77.8176V159.437H276.547L273.178 156.981ZM155.22 156.723V82.5737C194.009 105.547 231.991 130.473 268.212 156.723L155.22 156.723ZM465.164 324.718C448.758 307.641 431.927 290.953 414.672 274.654C409.915 270.156 405.129 265.694 400.313 261.268C370.923 234.238 340.566 208.531 309.243 184.147L308.877 183.862H152.509V327.018H467.373L465.164 324.718ZM155.22 324.304V186.576H307.949C338.152 210.098 367.537 234.937 396.105 261.091C401.065 265.63 405.991 270.205 410.884 274.817C427.988 290.91 444.692 307.406 460.996 324.304H155.22Z" fill="white"/>
<path d="M302.695 178.589C302.695 212.955 240.546 289.511 240.546 289.511C240.546 289.511 178.396 212.955 178.396 178.589C178.396 162.086 184.943 146.259 196.599 134.59C208.254 122.92 224.062 116.364 240.546 116.364C257.029 116.364 272.837 122.92 284.492 134.59C296.148 146.259 302.695 162.086 302.695 178.589V178.589Z" fill="#00BFA6"/>
<path d="M268.958 175.884C268.958 181.51 267.291 187.009 264.17 191.687C261.048 196.365 256.61 200.011 251.419 202.164C246.227 204.317 240.515 204.88 235.003 203.783C229.492 202.685 224.43 199.976 220.456 195.998C216.483 192.02 213.777 186.951 212.681 181.433C211.584 175.915 212.147 170.196 214.298 164.998C216.448 159.8 220.089 155.358 224.762 152.232C229.434 149.106 234.927 147.438 240.546 147.438C244.278 147.436 247.973 148.171 251.421 149.6C254.869 151.029 258.001 153.124 260.64 155.766C263.279 158.408 265.371 161.544 266.798 164.996C268.226 168.448 268.959 172.148 268.958 175.884V175.884Z" fill="white"/>
<path d="M240.546 334.421C249.798 334.421 257.299 326.911 257.299 317.648C257.299 308.384 249.798 300.874 240.546 300.874C231.293 300.874 223.792 308.384 223.792 317.648C223.792 326.911 231.293 334.421 240.546 334.421Z" fill="#00BFA6"/>
<path d="M401.067 107.078C414.747 107.078 425.837 95.975 425.837 82.2785C425.837 68.582 414.747 57.4788 401.067 57.4788C387.387 57.4788 376.297 68.582 376.297 82.2785C376.297 95.975 387.387 107.078 401.067 107.078Z" fill="#FF6584"/>
<path d="M478.743 158.702H357.228C357.076 158.704 356.924 158.692 356.774 158.666L414.245 58.9993C414.596 58.3785 415.105 57.8622 415.72 57.5029C416.335 57.1436 417.035 56.9543 417.747 56.9543C418.46 56.9543 419.159 57.1436 419.774 57.5029C420.39 57.8622 420.899 58.3785 421.249 58.9993L459.819 125.884L461.667 129.084L478.743 158.702Z" fill="white"/>
<path opacity="0.2" d="M478.743 158.702H437.255L457.621 129.084L459.086 126.95L459.82 125.883L461.667 129.084L478.743 158.702Z" fill="black"/>
<path d="M546.401 158.702H441.301L461.667 129.084L463.133 126.95L489.672 88.352C491.412 85.8223 495.597 85.6647 497.643 87.8748C497.78 88.0256 497.908 88.185 498.025 88.352L546.401 158.702Z" fill="white"/>
<path d="M554.199 299.199C561.123 299.199 566.736 293.579 566.736 286.647C566.736 279.715 561.123 274.096 554.199 274.096C547.276 274.096 541.663 279.715 541.663 286.647C541.663 293.579 547.276 299.199 554.199 299.199Z" fill="white"/>
<path d="M555.408 324.454H552.841L554.011 284.757L555.408 324.454Z" fill="#CBCBCB"/>
<path d="M554.237 292.281L556.994 288.462L554.2 293.226L553.898 292.697L554.237 292.281Z" fill="#CBCBCB"/>
<path d="M553.936 296.136L551.179 292.318L553.973 297.082L554.275 296.552L553.936 296.136Z" fill="#CBCBCB"/>
<path d="M518.553 287.155C528.779 287.155 537.068 278.855 537.068 268.617C537.068 258.379 528.779 250.08 518.553 250.08C508.327 250.08 500.038 258.379 500.038 268.617C500.038 278.855 508.327 287.155 518.553 287.155Z" fill="white"/>
<path d="M520.337 324.454H516.545L518.275 265.825L520.337 324.454Z" fill="#CBCBCB"/>
<path d="M518.609 276.936L522.68 271.297L518.553 278.333L518.107 277.551L518.609 276.936Z" fill="#CBCBCB"/>
<path d="M518.163 282.632L514.091 276.993L518.219 284.028L518.665 283.246L518.163 282.632Z" fill="#CBCBCB"/>
<path d="M88.6853 299.199C95.609 299.199 101.222 293.579 101.222 286.647C101.222 279.715 95.609 274.096 88.6853 274.096C81.7616 274.096 76.1488 279.715 76.1488 286.647C76.1488 293.579 81.7616 299.199 88.6853 299.199Z" fill="white"/>
<path d="M89.8942 324.454H87.3265L88.4969 284.757L89.8942 324.454Z" fill="#CBCBCB"/>
<path d="M88.7231 292.281L91.4801 288.462L88.6854 293.226L88.3838 292.697L88.7231 292.281Z" fill="#CBCBCB"/>
<path d="M88.4215 296.136L85.6644 292.318L88.4592 297.082L88.7608 296.552L88.4215 296.136Z" fill="#CBCBCB"/>
<path d="M53.0388 287.155C63.2645 287.155 71.5541 278.855 71.5541 268.617C71.5541 258.379 63.2645 250.08 53.0388 250.08C42.813 250.08 34.5234 258.379 34.5234 268.617C34.5234 278.855 42.813 287.155 53.0388 287.155Z" fill="white"/>
<path d="M54.8233 324.454H51.0312L52.7604 265.825L54.8233 324.454Z" fill="#CBCBCB"/>
<path d="M53.0948 276.936L57.1656 271.297L53.0391 278.333L52.5933 277.551L53.0948 276.936Z" fill="#CBCBCB"/>
<path d="M52.649 282.632L48.5774 276.993L52.7047 284.028L53.1506 283.246L52.649 282.632Z" fill="#CBCBCB"/>
</g>
<defs>
<clipPath id="clip0_2_32">
<rect width="591" height="478" fill="white"/>
</clipPath>
</defs>
</svg>
