<svg width="900" height="237" viewBox="0 0 900 237" fill="none" xmlns="http://www.w3.org/2000/svg">
<path d="M0 0L21.5 11.5C43 23 86 46 128.8 47.8C171.7 49.7 214.3 30.3 257.2 28C300 25.7 343 40.3 385.8 38.3C428.7 36.3 471.3 17.7 514.2 10.3C557 2.99999 600 7.00001 642.8 13.2C685.7 19.3 728.3 27.7 771.2 26.2C814 24.7 857 13.3 878.5 7.70001L900 2V238H878.5C857 238 814 238 771.2 238C728.3 238 685.7 238 642.8 238C600 238 557 238 514.2 238C471.3 238 428.7 238 385.8 238C343 238 300 238 257.2 238C214.3 238 171.7 238 128.8 238C86 238 43 238 21.5 238H0V0Z" fill="#00FFC8"/>
<path d="M0 87L21.5 79.8C43 72.7 86 58.3 128.8 60.3C171.7 62.3 214.3 80.7 257.2 88.5C300 96.3 343 93.7 385.8 93.2C428.7 92.7 471.3 94.3 514.2 87.8C557 81.3 600 66.7 642.8 64.8C685.7 63 728.3 74 771.2 70.7C814 67.3 857 49.7 878.5 40.8L900 32V238H878.5C857 238 814 238 771.2 238C728.3 238 685.7 238 642.8 238C600 238 557 238 514.2 238C471.3 238 428.7 238 385.8 238C343 238 300 238 257.2 238C214.3 238 171.7 238 128.8 238C86 238 43 238 21.5 238H0V87Z" fill="#00E3B2"/>
<path d="M0 133L21.5 123.7C43 114.3 86 95.7 128.8 95.2C171.7 94.7 214.3 112.3 257.2 122C300 131.7 343 133.3 385.8 133.2C428.7 133 471.3 131 514.2 130.3C557 129.7 600 130.3 642.8 131.7C685.7 133 728.3 135 771.2 127.5C814 120 857 103 878.5 94.5L900 86V238H878.5C857 238 814 238 771.2 238C728.3 238 685.7 238 642.8 238C600 238 557 238 514.2 238C471.3 238 428.7 238 385.8 238C343 238 300 238 257.2 238C214.3 238 171.7 238 128.8 238C86 238 43 238 21.5 238H0V133Z" fill="#00C89C"/>
<path d="M0 124L21.5 131.3C43 138.7 86 153.3 128.8 156.5C171.7 159.7 214.3 151.3 257.2 147.5C300 143.7 343 144.3 385.8 142.5C428.7 140.7 471.3 136.3 514.2 132.5C557 128.7 600 125.3 642.8 126.5C685.7 127.7 728.3 133.3 771.2 135C814 136.7 857 134.3 878.5 133.2L900 132V238H878.5C857 238 814 238 771.2 238C728.3 238 685.7 238 642.8 238C600 238 557 238 514.2 238C471.3 238 428.7 238 385.8 238C343 238 300 238 257.2 238C214.3 238 171.7 238 128.8 238C86 238 43 238 21.5 238H0V124Z" fill="#00AE87"/>
<path d="M0 187L21.5 190.7C43 194.3 86 201.7 128.8 204.3C171.7 207 214.3 205 257.2 198.5C300 192 343 181 385.8 177.8C428.7 174.7 471.3 179.3 514.2 181.7C557 184 600 184 642.8 185C685.7 186 728.3 188 771.2 192.5C814 197 857 204 878.5 207.5L900 211V238H878.5C857 238 814 238 771.2 238C728.3 238 685.7 238 642.8 238C600 238 557 238 514.2 238C471.3 238 428.7 238 385.8 238C343 238 300 238 257.2 238C214.3 238 171.7 238 128.8 238C86 238 43 238 21.5 238H0V187Z" fill="#009473"/>
</svg>
