<svg width="900" height="315" viewBox="0 0 900 315" fill="none" xmlns="http://www.w3.org/2000/svg">
<path d="M0 315H129V269H257V247H386V254H514V277H643V266H771V261H900V295V0H771H643H514H386H257H129H0V315Z" fill="#00FFC8"/>
<path d="M0 254H129V240H257V245H386V285H514V251H643V278H771V235H900V273V0H771H643H514H386H257H129H0V254Z" fill="#00F3BE"/>
<path d="M0 228H129V252H257V254H386V215H514V211H643V222H771V258H900V194V0H771H643H514H386H257H129H0V228Z" fill="#00E6B4"/>
<path d="M0 201H129V211H257V192H386V202H514V198H643V169H771V184H900V197V0H771H643H514H386H257H129H0V201Z" fill="#00DAAA"/>
<path d="M0 161H129V176H257V175H386V179H514V160H643V175H771V178H900V151V0H771H643H514H386H257H129H0V161Z" fill="#00CEA1"/>
<path d="M0 169H129V160H257V154H386V152H514V150H643V153H771V150H900V138V0H771H643H514H386H257H129H0V169Z" fill="#00C297"/>
<path d="M0 98H129V92H257V100H386V119H514V113H643V105H771V97H900V95V0H771H643H514H386H257H129H0V98Z" fill="#00B68E"/>
<path d="M0 95H129V106H257V96H386V66H514V93H643V94H771H900V78V0H771H643H514H386H257H129H0V95Z" fill="#00AB85"/>
<path d="M0 50H129V42H257V57H386V43H514V72H643V73H771V60H900V52V0H771H643H514H386H257H129H0V50Z" fill="#009F7C"/>
<path d="M0 18H129V24H257V42H386V37H514V48H643V24H771V29H900V27V0H771H643H514H386H257H129H0V18Z" fill="#009473"/>
</svg>
