<svg width="900" height="141" viewBox="0 0 900 141" fill="none" xmlns="http://www.w3.org/2000/svg">
<path d="M0 25L21.5 26.5C43 28 86 31 128.8 34.5C171.7 38 214.3 42 257.2 36.8C300 31.7 343 17.3 385.8 9.20001C428.7 1.00001 471.3 -0.999998 514.2 2.5C557 6 600 15 642.8 20C685.7 25 728.3 26 771.2 26.7C814 27.3 857 27.7 878.5 27.8L900 28V142H878.5C857 142 814 142 771.2 142C728.3 142 685.7 142 642.8 142C600 142 557 142 514.2 142C471.3 142 428.7 142 385.8 142C343 142 300 142 257.2 142C214.3 142 171.7 142 128.8 142C86 142 43 142 21.5 142H0V25Z" fill="#00FFC8"/>
<path d="M0 42L21.5 46.2C43 50.3 86 58.7 128.8 55.7C171.7 52.7 214.3 38.3 257.2 35.7C300 33 343 42 385.8 43C428.7 44 471.3 37 514.2 37C557 37 600 44 642.8 44C685.7 44 728.3 37 771.2 36.7C814 36.3 857 42.7 878.5 45.8L900 49V142H878.5C857 142 814 142 771.2 142C728.3 142 685.7 142 642.8 142C600 142 557 142 514.2 142C471.3 142 428.7 142 385.8 142C343 142 300 142 257.2 142C214.3 142 171.7 142 128.8 142C86 142 43 142 21.5 142H0V42Z" fill="#00E3B2"/>
<path d="M0 46L21.5 50.7C43 55.3 86 64.7 128.8 67.7C171.7 70.7 214.3 67.3 257.2 64.8C300 62.3 343 60.7 385.8 60.8C428.7 61 471.3 63 514.2 67.3C557 71.7 600 78.3 642.8 79C685.7 79.7 728.3 74.3 771.2 73.7C814 73 857 77 878.5 79L900 81V142H878.5C857 142 814 142 771.2 142C728.3 142 685.7 142 642.8 142C600 142 557 142 514.2 142C471.3 142 428.7 142 385.8 142C343 142 300 142 257.2 142C214.3 142 171.7 142 128.8 142C86 142 43 142 21.5 142H0V46Z" fill="#00C89C"/>
<path d="M0 98L21.5 95.8C43 93.7 86 89.3 128.8 88C171.7 86.7 214.3 88.3 257.2 85.7C300 83 343 76 385.8 76C428.7 76 471.3 83 514.2 87.3C557 91.7 600 93.3 642.8 92.8C685.7 92.3 728.3 89.7 771.2 88C814 86.3 857 85.7 878.5 85.3L900 85V142H878.5C857 142 814 142 771.2 142C728.3 142 685.7 142 642.8 142C600 142 557 142 514.2 142C471.3 142 428.7 142 385.8 142C343 142 300 142 257.2 142C214.3 142 171.7 142 128.8 142C86 142 43 142 21.5 142H0V98Z" fill="#00AE87"/>
<path d="M0 109L21.5 107.7C43 106.3 86 103.7 128.8 102.7C171.7 101.7 214.3 102.3 257.2 102.7C300 103 343 103 385.8 102.8C428.7 102.7 471.3 102.3 514.2 102.7C557 103 600 104 642.8 104.7C685.7 105.3 728.3 105.7 771.2 106.2C814 106.7 857 107.3 878.5 107.7L900 108V142H878.5C857 142 814 142 771.2 142C728.3 142 685.7 142 642.8 142C600 142 557 142 514.2 142C471.3 142 428.7 142 385.8 142C343 142 300 142 257.2 142C214.3 142 171.7 142 128.8 142C86 142 43 142 21.5 142H0V109Z" fill="#009473"/>
</svg>
